<svg xmlns="http://www.w3.org/2000/svg" viewBox="0 0 64 64" role="img" aria-label="SlotWise">
<rect x="4" y="10" width="48" height="46" rx="9" fill="#0d1d3d"/><rect x="9" y="15" width="38" height="36" rx="5" fill="#fbf8f1"/>
<g fill="#e6ddcf"><rect x="12" y="18" width="7" height="6" rx="1.5"/><rect x="21.5" y="18" width="7" height="6" rx="1.5"/><rect x="31" y="18" width="7" height="6" rx="1.5"/><rect x="12" y="26.5" width="7" height="6" rx="1.5"/><rect x="21.5" y="26.5" width="7" height="6" rx="1.5"/><rect x="31" y="26.5" width="7" height="6" rx="1.5"/><rect x="31" y="35" width="7" height="6" rx="1.5"/><rect x="31" y="43.5" width="7" height="5" rx="1.5"/></g>
<rect x="15.5" y="5" width="5" height="10" rx="2.5" fill="#0d1d3d" stroke="#c9a45c" stroke-width="1.3"/><rect x="34.5" y="5" width="5" height="10" rx="2.5" fill="#0d1d3d" stroke="#c9a45c" stroke-width="1.3"/>
<path d="M29 38 L35 44 L53 20" fill="none" stroke="#fbf8f1" stroke-width="9" stroke-linecap="round" stroke-linejoin="round"/><path d="M29 38 L35 44 L53 20" fill="none" stroke="#0e5a5e" stroke-width="5" stroke-linecap="round" stroke-linejoin="round"/>
<circle cx="19" cy="45" r="13" fill="#fbf8f1"/><circle cx="19" cy="45" r="10.5" fill="#fbf8f1" stroke="#0e5a5e" stroke-width="3.5"/>
<path d="M19 45 V38.5 M19 45 H24.5" stroke="#0d1d3d" stroke-width="2" stroke-linecap="round" fill="none"/><circle cx="19" cy="45" r="1.4" fill="#c9a45c"/>
<path d="M56 3 L57.3 7 L61 8 L57.3 9.2 L56 13 L54.8 9.2 L51 8 L54.8 7Z" fill="#c9a45c"/>
</svg>
